<?xml version="1.0" encoding="utf-8"?>
<!-- Generator: Adobe Illustrator 13.0.1, SVG Export Plug-In . SVG Version: 6.00 Build 14948)  -->
<!DOCTYPE svg PUBLIC "-//W3C//DTD SVG 1.1//EN" "http://www.w3.org/Graphics/SVG/1.1/DTD/svg11.dtd">
<svg version="1.1" id="Layer_1" xmlns="http://www.w3.org/2000/svg" xmlns:xlink="http://www.w3.org/1999/xlink" x="0px" y="0px"
	 width="100px" height="100px" viewBox="0 0 100 100" enable-background="new 0 0 100 100" xml:space="preserve">
<path fill="#4C4C4C" stroke="#4C4C4C" stroke-width="5" d="M50,1C22.938,1,1,22.938,1,50c0,27.062,21.938,49,49,49
	c27.061,0,49-21.938,49-49C99,22.938,77.061,1,50,1z M56.363,50l29.886-29.885C92.963,28.244,97,38.659,97,50
	s-4.038,21.757-10.751,29.885L56.363,50z M79.885,13.75L50,43.636L20.116,13.75C28.244,7.038,38.659,3,50,3
	S71.756,7.038,79.885,13.75z M13.75,20.115L43.636,50L13.751,79.885C7.038,71.757,3,61.341,3,50S7.038,28.244,13.75,20.115z
	 M20.115,86.249L50,56.364l29.885,29.885C71.757,92.962,61.341,97,50,97S28.243,92.962,20.115,86.249z"/>
<g>
	<path fill="#4C4C4C" d="M22.524,58.792l-5.728-8.063v8.063h-4.064V36.489h6.208c5.291,0,7.936,2.368,7.936,7.104
		c0,1.056-0.171,2.094-0.512,3.112s-0.898,1.923-1.672,2.712c-0.773,0.79-1.763,1.333-2.968,1.632l5.76,7.743H22.524z
		 M18.493,48.713c0.906,0,1.682-0.216,2.328-0.648s1.133-1.008,1.464-1.728c0.33-0.72,0.496-1.506,0.496-2.36
		c0-1.472-0.338-2.555-1.016-3.248c-0.678-0.693-1.8-1.04-3.368-1.04h-1.6v9.024H18.493z"/>
</g>
<g>
	<path fill="#4C4C4C" d="M85.27,58.792l-5.549-7.812v7.812h-3.937V37.186h6.014c5.125,0,7.688,2.294,7.688,6.882
		c0,1.023-0.166,2.028-0.496,3.015c-0.331,0.987-0.871,1.863-1.62,2.627s-1.708,1.292-2.875,1.581l5.58,7.501H85.27z M81.364,49.028
		c0.878,0,1.63-0.209,2.255-0.627s1.098-0.977,1.418-1.674c0.32-0.697,0.48-1.459,0.48-2.286c0-1.426-0.328-2.475-0.983-3.146
		c-0.657-0.671-1.744-1.007-3.264-1.007h-1.55v8.742H81.364z"/>
</g>
</svg>
